<?xml version="1.0" encoding="UTF-8" standalone="no"?>
<svg
   xmlns:dc="http://purl.org/dc/elements/1.1/"
   xmlns:cc="http://creativecommons.org/ns#"
   xmlns:rdf="http://www.w3.org/1999/02/22-rdf-syntax-ns#"
   xmlns:svg="http://www.w3.org/2000/svg"
   xmlns="http://www.w3.org/2000/svg"
   xmlns:sodipodi="http://sodipodi.sourceforge.net/DTD/sodipodi-0.dtd"
   xmlns:inkscape="http://www.inkscape.org/namespaces/inkscape"
   width="297mm"
   height="210mm"
   version="1.1"
   viewBox="0 0 841.88976 595.27559"
   id="svg147"
   sodipodi:docname="goal.svg"
   inkscape:version="0.92.4 (5da689c313, 2019-01-14)"
   inkscape:export-filename="/tmp/radar.png"
   inkscape:export-xdpi="96"
   inkscape:export-ydpi="96">
  <metadata
     id="metadata151">
    <rdf:RDF>
      <cc:Work
         rdf:about="">
        <dc:format>image/svg+xml</dc:format>
        <dc:type
           rdf:resource="http://purl.org/dc/dcmitype/StillImage" />
        <dc:title></dc:title>
      </cc:Work>
    </rdf:RDF>
  </metadata>
  <sodipodi:namedview
     pagecolor="#ffffff"
     bordercolor="#666666"
     borderopacity="1"
     objecttolerance="10"
     gridtolerance="10"
     guidetolerance="10"
     inkscape:pageopacity="0"
     inkscape:pageshadow="2"
     inkscape:window-width="1459"
     inkscape:window-height="983"
     id="namedview149"
     showgrid="false"
     inkscape:zoom="0.70087721"
     inkscape:cx="525.61292"
     inkscape:cy="443.54519"
     inkscape:window-x="4"
     inkscape:window-y="55"
     inkscape:window-maximized="0"
     inkscape:current-layer="svg147"
     units="mm" />
  <defs
     id="defs65">
    <symbol
       id="u"
       overflow="visible"
       style="overflow:visible">
      <path
         d="m 18.766,-1.125 c -0.96875,0.5 -1.9805,0.875 -3.0312,1.125 -1.043,0.25781 -2.1367,0.39062 -3.2812,0.39062 -3.3984,0 -6.0898,-0.94531 -8.0781,-2.8438 -1.9922,-1.9062 -2.9844,-4.4844 -2.9844,-7.7344 0,-3.2578 0.99219,-5.8359 2.9844,-7.7344 1.9883,-1.9062 4.6797,-2.8594 8.0781,-2.8594 1.1445,0 2.2383,0.13281 3.2812,0.39062 1.0508,0.25 2.0625,0.625 3.0312,1.125 v 4.2188 c -0.98047,-0.65625 -1.9453,-1.1406 -2.8906,-1.4531 -0.94922,-0.3125 -1.9492,-0.46875 -3,-0.46875 -1.875,0 -3.3516,0.60547 -4.4219,1.8125 -1.0742,1.1992 -1.6094,2.8555 -1.6094,4.9688 0,2.1055 0.53516,3.7617 1.6094,4.9688 1.0703,1.1992 2.5469,1.7969 4.4219,1.7969 1.0508,0 2.0508,-0.14844 3,-0.45312 0.94531,-0.3125 1.9102,-0.80078 2.8906,-1.4688 z"
         id="path2"
         inkscape:connector-curvature="0" />
    </symbol>
    <symbol
       id="b"
       overflow="visible"
       style="overflow:visible">
      <path
         d="m 13.734,-11.141 c -0.4375,-0.19531 -0.87109,-0.34375 -1.2969,-0.4375 -0.41797,-0.10156 -0.83984,-0.15625 -1.2656,-0.15625 -1.2617,0 -2.2305,0.40625 -2.9062,1.2188 -0.67969,0.80469 -1.0156,1.9531 -1.0156,3.4531 v 7.0625 H 2.3591 v -15.312 h 4.8906 v 2.5156 c 0.625,-1 1.3438,-1.7266 2.1562,-2.1875 0.82031,-0.46875 1.8008,-0.70312 2.9375,-0.70312 0.16406,0 0.34375,0.01172 0.53125,0.03125 0.19531,0.01172 0.47656,0.03906 0.84375,0.07813 z"
         id="path5"
         inkscape:connector-curvature="0" />
    </symbol>
    <symbol
       id="a"
       overflow="visible"
       style="overflow:visible">
      <path
         d="m 17.641,-7.7031 v 1.4062 H 6.188 c 0.125,1.1484 0.53906,2.0078 1.25,2.5781 0.70703,0.57422 1.7031,0.85938 2.9844,0.85938 1.0312,0 2.082,-0.14844 3.1562,-0.45312 1.082,-0.3125 2.1914,-0.77344 3.3281,-1.3906 v 3.7656 c -1.1562,0.4375 -2.3125,0.76562 -3.4688,0.98438 -1.1562,0.22656 -2.3125,0.34375 -3.4688,0.34375 -2.7734,0 -4.9297,-0.70312 -6.4688,-2.1094 -1.5312,-1.4062 -2.2969,-3.3789 -2.2969,-5.9219 0,-2.5 0.75391,-4.4609 2.2656,-5.8906 1.5078,-1.4375 3.582,-2.1562 6.2188,-2.1562 2.4062,0 4.332,0.73047 5.7812,2.1875 1.4453,1.4492 2.1719,3.3828 2.1719,5.7969 z m -5.0312,-1.625 c 0,-0.92578 -0.27344,-1.6719 -0.8125,-2.2344 -0.54297,-0.57031 -1.25,-0.85938 -2.125,-0.85938 -0.94922,0 -1.7188,0.26562 -2.3125,0.79688 -0.5937,0.53126 -0.96484,1.2969 -1.1094,2.2969 z"
         id="path8"
         inkscape:connector-curvature="0" />
    </symbol>
    <symbol
       id="e"
       overflow="visible"
       style="overflow:visible">
      <path
         d="m 9.2188,-6.8906 c -1.0234,0 -1.793,0.17188 -2.3125,0.51562 -0.51172,0.34375 -0.76562,0.85547 -0.76562,1.5312 0,0.625 0.20703,1.1172 0.625,1.4688 0.41406,0.34375 0.98828,0.51562 1.7188,0.51562 0.92578,0 1.7031,-0.32812 2.3281,-0.98438 0.63281,-0.66406 0.95312,-1.4922 0.95312,-2.4844 v -0.5625 z m 7.4688,-1.8438 V 0 h -4.9219 v -2.2656 c -0.65625,0.92969 -1.3984,1.6055 -2.2188,2.0312 -0.82422,0.41406 -1.8242,0.625 -3,0.625 -1.5859,0 -2.8711,-0.45703 -3.8594,-1.375 -0.99219,-0.92578 -1.4844,-2.1289 -1.4844,-3.6094 0,-1.7891 0.61328,-3.1016 1.8438,-3.9375 1.2383,-0.84375 3.1797,-1.2656 5.8281,-1.2656 h 2.8906 v -0.39062 c 0,-0.76953 -0.30859,-1.332 -0.92188,-1.6875 -0.61719,-0.36328 -1.5703,-0.54688 -2.8594,-0.54688 -1.0547,0 -2.0312,0.10547 -2.9375,0.3125 -0.89844,0.21094 -1.7305,0.52344 -2.5,0.9375 v -3.7344 c 1.0391,-0.25 2.0859,-0.44141 3.1406,-0.57812 1.0625,-0.13281 2.125,-0.20312 3.1875,-0.20312 2.7578,0 4.75,0.54688 5.9688,1.6406 1.2266,1.0859 1.8438,2.8555 1.8438,5.3125 z"
         id="path11"
         inkscape:connector-curvature="0" />
    </symbol>
    <symbol
       id="d"
       overflow="visible"
       style="overflow:visible">
      <path
         d="m 7.7031,-19.656 v 4.3438 H 12.75 v 3.5 H 7.7031 v 6.5 c 0,0.71094 0.14062,1.1875 0.42188,1.4375 0.28126,0.25 0.83594,0.375 1.6719,0.375 h 2.5156 v 3.5 h -4.1875 c -1.9375,0 -3.3125,-0.39844 -4.125,-1.2031 -0.80469,-0.8125 -1.2031,-2.1797 -1.2031,-4.1094 v -6.5 h -2.4219 v -3.5 h 2.4219 v -4.3438 z"
         id="path14"
         inkscape:connector-curvature="0" />
    </symbol>
    <symbol
       id="k"
       overflow="visible"
       style="overflow:visible">
      <path
         d="m 12.766,-13.078 v -8.2031 h 4.9219 V -1e-4 H 12.766 v -2.2188 c -0.66797,0.90625 -1.4062,1.5703 -2.2188,1.9844 -0.8126,0.4141 -1.7578,0.625 -2.8281,0.625 -1.8867,0 -3.4336,-0.75 -4.6406,-2.25 -1.2109,-1.5 -1.8125,-3.4258 -1.8125,-5.7812 0,-2.3633 0.60156,-4.2969 1.8125,-5.7969 1.207,-1.5 2.7539,-2.25 4.6406,-2.25 1.0625,0 2,0.21484 2.8125,0.64062 0.82031,0.42969 1.5664,1.0859 2.2344,1.9688 z m -3.2188,9.9219 c 1.0391,0 1.8359,-0.37891 2.3906,-1.1406 0.55078,-0.76953 0.82812,-1.8828 0.82812,-3.3438 0,-1.457 -0.27734,-2.5664 -0.82812,-3.3281 -0.55469,-0.76953 -1.3516,-1.1562 -2.3906,-1.1562 -1.043,0 -1.8398,0.38672 -2.3906,1.1562 -0.55469,0.76172 -0.82812,1.8711 -0.82812,3.3281 0,1.4609 0.27344,2.5742 0.82812,3.3438 0.55078,0.76172 1.3477,1.1406 2.3906,1.1406 z"
         id="path17"
         inkscape:connector-curvature="0" />
    </symbol>
    <symbol
       id="j"
       overflow="visible"
       style="overflow:visible">
      <path
         d="m 10.5,-3.1562 c 1.0508,0 1.8516,-0.37891 2.4062,-1.1406 0.55078,-0.76953 0.82812,-1.8828 0.82812,-3.3438 0,-1.457 -0.27734,-2.5664 -0.82812,-3.3281 -0.55469,-0.76953 -1.3555,-1.1562 -2.4062,-1.1562 -1.0547,0 -1.8594,0.38672 -2.4219,1.1562 -0.55469,0.77344 -0.82812,1.8828 -0.82812,3.3281 0,1.4492 0.27344,2.5586 0.82812,3.3281 0.5625,0.77344 1.3672,1.1562 2.4219,1.1562 z m -3.25,-9.9219 c 0.67578,-0.88281 1.4219,-1.5391 2.2344,-1.9688 0.82031,-0.42578 1.7656,-0.64062 2.8281,-0.64062 1.8945,0 3.4453,0.75 4.6562,2.25 1.207,1.5 1.8125,3.4336 1.8125,5.7969 0,2.3555 -0.60547,4.2812 -1.8125,5.7812 -1.2109,1.5 -2.7617,2.25 -4.6562,2.25 -1.0625,0 -2.0078,-0.21094 -2.8281,-0.625 C 8.6719,-0.6602 7.9258,-1.32032 7.25,-2.21882 V -2e-5 H 2.3594 v -21.281 H 7.25 Z"
         id="path20"
         inkscape:connector-curvature="0" />
    </symbol>
    <symbol
       id="i"
       overflow="visible"
       style="overflow:visible">
      <path
         d="m 0.34375,-15.312 h 4.8906 l 4.125,10.391 3.5,-10.391 h 4.8906 l -6.4375,16.766 c -0.64844,1.6953 -1.4023,2.8828 -2.2656,3.5625 -0.86719,0.6875 -2,1.0312 -3.4062,1.0312 H 2.79685 V 2.8289 h 1.5312 c 0.83203,0 1.4375,-0.13672 1.8125,-0.40625 C 6.52336,2.16093 6.82024,1.69218 7.03117,1.01645 L 7.17179,0.59457 Z"
         id="path23"
         inkscape:connector-curvature="0" />
    </symbol>
    <symbol
       id="h"
       overflow="visible"
       style="overflow:visible">
      <path
         d="m 2.5781,-20.406 h 5.25 V 0 h -5.25 z"
         id="path26"
         inkscape:connector-curvature="0" />
    </symbol>
    <symbol
       id="g"
       overflow="visible"
       style="overflow:visible">
      <path
         d="m 14.719,-14.828 v 3.9844 c -0.65625,-0.45703 -1.3242,-0.79688 -2,-1.0156 -0.66797,-0.21875 -1.3594,-0.32812 -2.0781,-0.32812 -1.3672,0 -2.4336,0.40234 -3.2031,1.2031 -0.76172,0.79297 -1.1406,1.9062 -1.1406,3.3438 0,1.4297 0.37891,2.543 1.1406,3.3438 0.76953,0.79297 1.8359,1.1875 3.2031,1.1875 0.75781,0 1.4844,-0.10938 2.1719,-0.32812 0.6875,-0.22656 1.3203,-0.56641 1.9062,-1.0156 v 4 c -0.76172,0.28125 -1.5391,0.48828 -2.3281,0.625 -0.78125,0.14453 -1.5742,0.21875 -2.375,0.21875 -2.7617,0 -4.9219,-0.70703 -6.4844,-2.125 -1.5547,-1.4141 -2.3281,-3.3828 -2.3281,-5.9062 0,-2.5312 0.77344,-4.5039 2.3281,-5.9219 1.5625,-1.4141 3.7227,-2.125 6.4844,-2.125 0.80078,0 1.5938,0.07422 2.375,0.21875 0.78125,0.13672 1.5547,0.35156 2.3281,0.64062 z"
         id="path29"
         inkscape:connector-curvature="0" />
    </symbol>
    <symbol
       id="c"
       overflow="visible"
       style="overflow:visible">
      <path
         d="m 9.6406,-12.188 c -1.0859,0 -1.9141,0.39062 -2.4844,1.1719 -0.57422,0.78125 -0.85938,1.9062 -0.85938,3.375 0,1.4688 0.28516,2.5938 0.85938,3.375 0.57031,0.77344 1.3984,1.1562 2.4844,1.1562 1.0625,0 1.875,-0.38281 2.4375,-1.1562 0.57031,-0.78125 0.85938,-1.9062 0.85938,-3.375 0,-1.4688 -0.28906,-2.5938 -0.85938,-3.375 -0.5625,-0.78125 -1.375,-1.1719 -2.4375,-1.1719 z m 0,-3.5 c 2.6328,0 4.6914,0.71484 6.1719,2.1406 1.4766,1.418 2.2188,3.3867 2.2188,5.9062 0,2.5117 -0.74219,4.4805 -2.2188,5.9062 C 14.332,-0.317 12.2734,0.39 9.6406,0.39 6.9922,0.39 4.9258,-0.31703 3.4375,-1.735 1.9453,-3.1608 1.2031,-5.1295 1.2031,-7.6412 c 0,-2.5195 0.74219,-4.4883 2.2344,-5.9062 1.4883,-1.4258 3.5547,-2.1406 6.2031,-2.1406 z"
         id="path32"
         inkscape:connector-curvature="0" />
    </symbol>
    <symbol
       id="f"
       overflow="visible"
       style="overflow:visible">
      <path
         d="M 17.75,-9.3281 V 0 h -4.9219 v -7.1406 c 0,-1.3203 -0.03125,-2.2344 -0.09375,-2.7344 -0.0625,-0.5 -0.16797,-0.86719 -0.3125,-1.1094 -0.1875,-0.3125 -0.44922,-0.55469 -0.78125,-0.73438 -0.32422,-0.17578 -0.69531,-0.26562 -1.1094,-0.26562 -1.0234,0 -1.8242,0.39844 -2.4062,1.1875 -0.58594,0.78125 -0.875,1.8711 -0.875,3.2656 V -1e-4 H 2.3594 v -15.312 H 7.25 v 2.2344 c 0.73828,-0.88281 1.5195,-1.5391 2.3438,-1.9688 0.83203,-0.42578 1.75,-0.64062 2.75,-0.64062 1.7695,0 3.1133,0.54688 4.0312,1.6406 0.91406,1.0859 1.375,2.6562 1.375,4.7188 z"
         id="path35"
         inkscape:connector-curvature="0" />
    </symbol>
    <symbol
       id="t"
       overflow="visible"
       style="overflow:visible">
      <path
         d="m 2.5781,-20.406 h 6.6875 l 4.6562,10.922 4.6719,-10.922 h 6.6875 V 0 H 20.2968 V -14.938 L 15.5937,-3.922 H 12.2656 L 7.5625,-14.938 V 0 H 2.5781 Z"
         id="path38"
         inkscape:connector-curvature="0" />
    </symbol>
    <symbol
       id="s"
       overflow="visible"
       style="overflow:visible">
      <path
         d="M 2.3594,-21.281 H 7.25 v 11.594 l 5.625,-5.625 h 5.6875 L 11.0937,-8.2808 19.1562,4e-4 H 13.2187 L 7.2499,-6.3902 V 4e-4 H 2.3593 Z"
         id="path41"
         inkscape:connector-curvature="0" />
    </symbol>
    <symbol
       id="r"
       overflow="visible"
       style="overflow:visible">
      <path
         d="m 12.422,-21.281 v 3.2188 H 9.7189 c -0.6875,0 -1.1719,0.125 -1.4531,0.375 -0.27344,0.25 -0.40625,0.6875 -0.40625,1.3125 v 1.0625 h 4.1875 v 3.5 H 7.85955 V -2e-4 h -4.8906 v -11.812 h -2.4375 v -3.5 h 2.4375 v -1.0625 c 0,-1.6641 0.46094,-2.8984 1.3906,-3.7031 0.92578,-0.80078 2.3672,-1.2031 4.3281,-1.2031 z"
         id="path44"
         inkscape:connector-curvature="0" />
    </symbol>
    <symbol
       id="q"
       overflow="visible"
       style="overflow:visible">
      <path
         d="m 16.547,-12.766 c 0.61328,-0.94531 1.3477,-1.6719 2.2031,-2.1719 0.85156,-0.5 1.7891,-0.75 2.8125,-0.75 1.7578,0 3.0977,0.54688 4.0156,1.6406 0.92578,1.0859 1.3906,2.6562 1.3906,4.7188 V -4e-4 h -4.9219 v -7.9844 -0.35938 c 0.0078,-0.13281 0.01563,-0.32031 0.01563,-0.5625 0,-1.082 -0.16406,-1.8633 -0.48438,-2.3438 -0.3125,-0.48828 -0.82422,-0.73438 -1.5312,-0.73438 -0.92969,0 -1.6484,0.38672 -2.1562,1.1562 -0.51172,0.76172 -0.77344,1.8672 -0.78125,3.3125 v 7.5156 h -4.9219 v -7.9844 c 0,-1.6953 -0.14844,-2.7852 -0.4375,-3.2656 -0.29297,-0.48828 -0.8125,-0.73438 -1.5625,-0.73438 -0.9375,0 -1.6641,0.38672 -2.1719,1.1562 -0.51172,0.76172 -0.76562,1.8594 -0.76562,3.2969 v 7.5312 h -4.9219 v -15.312 h 4.9219 v 2.2344 c 0.60156,-0.86328 1.2891,-1.5156 2.0625,-1.9531 0.78125,-0.4375 1.6406,-0.65625 2.5781,-0.65625 1.0625,0 2,0.25781 2.8125,0.76562 0.8125,0.51172 1.4258,1.2305 1.8438,2.1562 z"
         id="path47"
         inkscape:connector-curvature="0" />
    </symbol>
    <symbol
       id="p"
       overflow="visible"
       style="overflow:visible">
      <path
         d="M 17.75,-9.3281 V 0 h -4.9219 v -7.1094 c 0,-1.3438 -0.03125,-2.2656 -0.09375,-2.7656 -0.0625,-0.5 -0.16797,-0.86719 -0.3125,-1.1094 -0.1875,-0.3125 -0.44922,-0.55469 -0.78125,-0.73438 -0.32422,-0.17578 -0.69531,-0.26562 -1.1094,-0.26562 -1.0234,0 -1.8242,0.39844 -2.4062,1.1875 -0.58594,0.78125 -0.875,1.8711 -0.875,3.2656 V -1e-4 H 2.3594 v -21.281 H 7.25 v 8.2031 c 0.73828,-0.88281 1.5195,-1.5391 2.3438,-1.9688 0.83203,-0.42578 1.75,-0.64062 2.75,-0.64062 1.7695,0 3.1133,0.54688 4.0312,1.6406 0.91406,1.0859 1.375,2.6562 1.375,4.7188 z"
         id="path50"
         inkscape:connector-curvature="0" />
    </symbol>
    <symbol
       id="o"
       overflow="visible"
       style="overflow:visible">
      <path
         d="m 2.5781,-20.406 h 5.875 l 7.4219,14 v -14 h 4.9844 V 0 h -5.875 L 7.5625,-14 V 0 H 2.5781 Z"
         id="path53"
         inkscape:connector-curvature="0" />
    </symbol>
    <symbol
       id="n"
       overflow="visible"
       style="overflow:visible">
      <path
         d="m 2.1875,-5.9688 v -9.3438 h 4.9219 v 1.5312 c 0,0.83594 -0.00781,1.875 -0.015625,3.125 -0.011719,1.25 -0.015625,2.0859 -0.015625,2.5 0,1.2422 0.03125,2.1328 0.09375,2.6719 0.070313,0.54297 0.17969,0.93359 0.32812,1.1719 0.20703,0.32422 0.47266,0.57422 0.79688,0.75 0.32031,0.16797 0.69141,0.25 1.1094,0.25 1.0195,0 1.8203,-0.39062 2.4062,-1.1719 0.58203,-0.78125 0.875,-1.8672 0.875,-3.2656 v -7.5625 h 4.8906 V -6e-4 H 12.6875 V -2.2194 C 11.94531,-1.32096 11.1641,-0.6608 10.3437,-0.235 9.51948,0.17906 8.6093,0.39 7.6093,0.39 5.8476,0.39 4.5038,-0.14906 3.5781,-1.235 2.64841,-2.317 2.1875,-3.8952 2.1875,-5.9694 Z"
         id="path56"
         inkscape:connector-curvature="0" />
    </symbol>
    <symbol
       id="m"
       overflow="visible"
       style="overflow:visible">
      <path
         d="m 2.5781,-20.406 h 8.7344 c 2.5938,0 4.582,0.57812 5.9688,1.7344 1.3945,1.1484 2.0938,2.7891 2.0938,4.9219 0,2.1367 -0.69922,3.7812 -2.0938,4.9375 -1.3867,1.1562 -3.375,1.7344 -5.9688,1.7344 H 7.8281 V 3e-4 h -5.25 z m 5.25,3.8125 v 5.7031 H 10.75 c 1.0195,0 1.8047,-0.25 2.3594,-0.75 0.5625,-0.5 0.84375,-1.2031 0.84375,-2.1094 0,-0.91406 -0.28125,-1.6172 -0.84375,-2.1094 -0.55469,-0.48828 -1.3398,-0.73438 -2.3594,-0.73438 z"
         id="path59"
         inkscape:connector-curvature="0" />
    </symbol>
    <symbol
       id="l"
       overflow="visible"
       style="overflow:visible">
      <path
         d="M 2.3594,-15.312 H 7.25 v 15.031 c 0,2.0508 -0.49609,3.6172 -1.4844,4.7031 -0.98047,1.082 -2.4062,1.625 -4.2812,1.625 H -0.9375 V 2.8283 h 0.85938 c 0.92578,0 1.5625,-0.21094 1.9062,-0.625 0.35156,-0.41797 0.53125,-1.2461 0.53125,-2.4844 z m 0,-5.9688 H 7.25 v 4 H 2.3594 Z"
         id="path62"
         inkscape:connector-curvature="0" />
    </symbol>
  </defs>
  <g
     id="g3899"
     transform="matrix(0.17934423,0,0,0.17934423,617.48114,128.28079)">
    <path
       d="m 350,28 c -66.836,0 -130.93,26.551 -178.19,73.809 -47.258,47.258 -73.809,111.36 -73.809,178.19 0,66.83 26.551,130.93 73.809,178.19 47.258,47.258 111.36,73.809 178.19,73.809 66.83,0 130.93,-26.551 178.19,-73.809 47.258,-47.258 73.809,-111.36 73.809,-178.19 -0.0742,-66.812 -26.648,-130.87 -73.891,-178.11 -47.243,-47.24 -111.3,-73.816 -178.11,-73.891 z m 0,481.6 c -49.918,0.0273 -98.484,-16.211 -138.34,-46.258 -39.856,-30.047 -68.844,-72.266 -82.559,-120.26 -13.715,-47.996 -11.414,-99.156 6.5508,-145.73 17.969,-46.57 50.621,-86.02 93.02,-112.37 42.395,-26.348 92.223,-38.164 141.94,-33.652 49.711,4.5078 96.602,25.098 133.56,58.645 l -39.199,39.199 -47.77,47.656 -40.543,40.543 c -7.9688,-5.0703 -17.211,-7.7695 -26.656,-7.7812 -13.367,0 -26.188,5.3086 -35.637,14.762 -9.4531,9.4492 -14.762,22.27 -14.762,35.637 0,13.367 5.3086,26.188 14.762,35.637 9.4492,9.4531 22.27,14.762 35.637,14.762 13.367,0 26.188,-5.3086 35.637,-14.762 9.4531,-9.4492 14.762,-22.27 14.762,-35.637 0.008,-9.4805 -2.6914,-18.77 -7.7812,-26.77 l 32.09,-32.145 -0.004,0.004 c 13.316,16.742 20.547,37.516 20.496,58.91 0,25.25 -10.027,49.465 -27.883,67.316 -17.852,17.855 -42.066,27.883 -67.316,27.883 -25.25,0 -49.465,-10.027 -67.316,-27.883 -17.855,-17.852 -27.883,-42.066 -27.883,-67.316 0,-25.25 10.027,-49.465 27.883,-67.316 17.852,-17.855 42.066,-27.883 67.316,-27.883 6.1875,0 11.199,-5.0156 11.199,-11.199 0,-6.1875 -5.0117,-11.203 -11.199,-11.203 -35.906,-0.004 -69.848,16.391 -92.16,44.523 -22.312,28.132 -30.551,64.918 -22.367,99.879 8.1836,34.965 31.891,64.27 64.371,79.578 32.48,15.308 70.176,14.938 102.35,-1.0039 32.172,-15.945 55.301,-45.711 62.797,-80.828 7.4961,-35.113 -1.4648,-71.73 -24.324,-99.418 l 31.809,-31.527 c 27.332,31.516 41.484,72.34 39.531,114.01 -1.9531,41.672 -19.871,80.992 -50.031,109.81 -30.16,28.82 -70.258,44.926 -111.97,44.98 -6.1875,0 -11.199,5.0156 -11.199,11.203 0,6.1836 5.0117,11.199 11.199,11.199 47.703,-0.0195 93.555,-18.484 127.96,-51.531 34.402,-33.051 54.691,-78.121 56.621,-125.79 1.9336,-47.668 -14.645,-94.23 -46.258,-129.96 l 31.695,-31.695 c 40.004,44.148 61.281,102.11 59.336,161.66 -1.9453,59.547 -26.953,116 -69.75,157.45 -42.797,41.445 -100.03,64.633 -159.6,64.668 z M 378,280 c 0,7.4258 -2.9492,14.547 -8.1992,19.801 -5.2539,5.25 -12.375,8.1992 -19.801,8.1992 -7.426,0 -14.547,-2.9492 -19.801,-8.1992 -5.25,-5.2539 -8.1992,-12.375 -8.1992,-19.801 0,-7.426 2.9492,-14.547 8.1992,-19.801 5.2539,-5.25 12.375,-8.1992 19.801,-8.1992 7.426,0 14.547,2.9492 19.801,8.1992 5.25,5.2539 8.1992,12.375 8.1992,19.801 z"
       id="path67"
       inkscape:connector-curvature="0" />
    <path
       d="m 268.8,420.67 c -41.594,-23.992 -70.438,-65.164 -78.781,-112.45 -8.343,-47.286 4.6641,-95.844 35.531,-132.62 30.871,-36.781 76.434,-58.016 124.45,-58 6.1875,0 11.199,-5.0156 11.199,-11.203 0,-6.1836 -5.0117,-11.199 -11.199,-11.199 -40.684,0 -80.23,13.422 -112.51,38.188 -32.273,24.766 -55.477,59.488 -66.008,98.785 -10.527,39.297 -7.7969,80.969 7.7734,118.55 15.57,37.586 43.109,68.984 78.344,89.32 1.6914,1.0117 3.6289,1.5352 5.5977,1.5117 5.0625,-0.008 9.4883,-3.4102 10.801,-8.2969 1.3086,-4.8906 -0.82031,-10.051 -5.1992,-12.59 z"
       id="path69"
       inkscape:connector-curvature="0" />
    <path
       d="m 313.32,438.26 -6.4414,-1.457 c -5.7539,-1.0117 -11.316,2.5664 -12.781,8.2227 -1.4648,5.6523 1.6602,11.484 7.1836,13.391 2.4062,0.67188 4.8164,1.2305 7.2812,1.793 h -0.004 c 0.82422,0.22266 1.6719,0.33594 2.5195,0.33594 5.707,0.0156 10.516,-4.2617 11.16,-9.9297 0.64844,-5.6719 -3.0742,-10.922 -8.6367,-12.188 z"
       id="path71"
       inkscape:connector-curvature="0" />
    <path
       d="m 400.4,125.61 c 3.8086,1.2891 7.6719,2.6875 11.199,4.2578 l 0.004,-0.004 c 1.3672,0.55469 2.832,0.83984 4.3086,0.83984 5.3516,0 9.9531,-3.7812 10.988,-9.0312 1.0391,-5.2461 -1.7812,-10.496 -6.7305,-12.527 -4.2578,-1.7344 -8.625,-3.3594 -12.992,-4.8164 -5.6953,-1.3398 -11.457,1.9297 -13.234,7.5039 -1.7734,5.5742 1.0391,11.574 6.457,13.777 z"
       id="path73"
       inkscape:connector-curvature="0" />
  </g>
  <g
     transform="matrix(0.20257487,0,0,0.20257487,482.97535,117.10752)"
     id="g124">
    <path
       d="m 97.125,455.88 6.125,-1.75 c -7,-40.25 -4.375,-80.5 7,-116.38 5.25,-18.375 13.125,-35 22.75,-51.625 9.625,-15.75 21,-29.75 33.25,-42.875 4.375,-4.375 7.875,-7.875 12.25,-11.375 l -26.25,-42 c -38.5,42 -64.75,96.25 -70,157.5 -3.5,35 0,68.25 9.625,99.75 0.875,3.5 2.625,6.125 4.375,9.625 h 0.875 z"
       id="path43"
       inkscape:connector-curvature="0" />
    <path
       d="m 530.25,172.38 c -11.375,-10.5 -23.625,-20.125 -36.75,-28 -35,-21.875 -75.25,-35.875 -118.12,-40.25 -63,-6.125 -123.38,10.5 -173.25,43.75 l 30.625,49.875 c 7,-2.625 14,-6.125 21,-7.875 15.75,-5.25 31.5,-7.875 48.125,-9.625 15.75,-0.875 31.5,-0.875 47.25,1.75 30.625,5.25 58.625,17.5 81.375,35 2.625,2.625 6.125,4.375 8.75,7 z"
       id="path45"
       inkscape:connector-curvature="0" />
    <path
       d="m 617.75,396.38 c -1.75,21 -6.125,42 -13.125,61.25 L 602,456.755 474.25,416.505 c 5.25,-8.75 10.5,-19.25 13.125,-29.75 3.5,-10.5 5.25,-22.75 6.125,-34.125 v -14 l 90.125,-98.875 c 26.25,45.5 39.375,99.75 34.125,156.62 z"
       id="path47-3"
       inkscape:connector-curvature="0" />
    <path
       d="m 557.38,206.5 c -0.875,-2.625 -4.375,-2.625 -6.125,-1.75 l -235.38,130.38 c -4.375,2.625 -8.75,6.125 -12.25,9.625 -18.375,20.125 -16.625,50.75 3.5,69.125 20.125,18.375 50.75,16.625 69.125,-3.5 L 557.37,211.76 c 0.875,-1.75 1.75,-3.5 0,-5.25 z m -220.5,198.62 c -14,-0.875 -23.625,-13.125 -22.75,-27.125 0.875,-14 13.125,-23.625 27.125,-22.75 14,0.875 23.625,13.125 22.75,27.125 -0.875,14 -13.125,24.5 -27.125,22.75 z"
       id="path49"
       inkscape:connector-curvature="0" />
  </g>
  <g
     transform="matrix(0.44386292,0,0,0.44386292,74.829365,111.89339)"
     id="g161">
    <path
       d="M 630,37.332 H 359.33 v -28 C 359.33,4.1992 355.1308,0 349.998,0 c -5.1328,0 -9.332,4.1992 -9.332,9.332 v 28 H 69.996 v 392 h 257.51 l -114.8,114.71 c -3.6406,3.6406 -3.6406,9.5195 0,13.16 1.8672,1.8672 4.1992,2.8008 6.625,2.8008 2.4258,0 4.7617,-0.93359 6.625,-2.707 l 114.71,-114.8 v 89.508 c 0,5.1328 4.1992,9.332 9.332,9.332 5.1328,0 9.332,-4.1992 9.332,-9.332 v -89.508 l 114.71,114.71 c 1.8672,1.8672 4.1992,2.8008 6.6289,2.8008 2.4258,0 4.7617,-0.93359 6.625,-2.707 3.6406,-3.6406 3.6406,-9.5195 0,-13.16 l -114.8,-114.8 h 257.51 z m -18.668,373.34 H 88.672 V 56.002 h 522.67 z"
       id="path46"
       inkscape:connector-curvature="0" />
    <path
       d="m 406,392 c 5.1328,0 9.332,-4.1992 9.332,-9.332 v -28 c 0,-5.1328 -4.1992,-9.332 -9.332,-9.332 -5.1328,0 -9.332,4.1992 -9.332,9.332 v 28 c 0,5.1328 4.1992,9.332 9.332,9.332 z"
       id="path48"
       inkscape:connector-curvature="0" />
    <path
       d="m 443.33,308 c -5.1328,0 -9.332,4.1992 -9.332,9.332 v 65.332 c 0,5.1328 4.1992,9.332 9.332,9.332 5.1328,0 9.332,-4.1992 9.332,-9.332 V 317.332 C 452.666,312.1992 448.4628,308 443.33,308 Z"
       id="path50-6"
       inkscape:connector-curvature="0" />
    <path
       d="m 480.67,326.67 c -5.1328,0 -9.332,4.1992 -9.332,9.332 v 46.668 c 0,5.1328 4.1992,9.332 9.332,9.332 5.1328,0 9.332,-4.1992 9.332,-9.332 v -46.668 c 0,-5.1328 -4.1992,-9.332 -9.332,-9.332 z"
       id="path52"
       inkscape:connector-curvature="0" />
    <path
       d="m 518,261.33 c -5.1328,0 -9.332,4.1992 -9.332,9.332 v 112 c 0,5.1328 4.1992,9.332 9.332,9.332 5.1328,0 9.332,-4.1992 9.332,-9.332 v -112 c 0,-5.1328 -4.1992,-9.3359 -9.332,-9.3359 z"
       id="path54"
       inkscape:connector-curvature="0" />
    <path
       d="m 555.33,298.67 c -5.1328,0 -9.332,4.1992 -9.332,9.332 v 74.668 c 0,5.1328 4.1992,9.332 9.332,9.332 5.1328,0 9.332,-4.1992 9.332,-9.332 v -74.668 c 0.004,-5.1328 -4.1992,-9.332 -9.332,-9.332 z"
       id="path56-7"
       inkscape:connector-curvature="0" />
    <path
       d="m 144.67,354.67 h 93.332 c 5.1328,0 9.332,-4.1992 9.332,-9.332 0,-5.1328 -4.1992,-9.332 -9.332,-9.332 l -93.332,-0.004 c -5.1328,0 -9.332,4.1992 -9.332,9.332 -0.004,5.1328 4.1992,9.3359 9.332,9.3359 z"
       id="path58"
       inkscape:connector-curvature="0" />
    <path
       d="m 284.67,373.33 h -140 c -5.1328,0 -9.332,4.1992 -9.332,9.332 0,5.1328 4.1992,9.332 9.332,9.332 h 140 c 5.1328,0 9.332,-4.1992 9.332,-9.332 0,-5.1289 -4.1992,-9.332 -9.332,-9.332 z"
       id="path60"
       inkscape:connector-curvature="0" />
    <path
       d="m 349.54,173.23 c -0.0937,-1.5859 -0.28125,-3.1719 -0.46484,-4.7617 -0.28125,-2.1484 -0.55859,-4.1992 -0.93359,-6.3477 -0.28125,-1.3086 -0.55859,-2.6133 -0.83984,-3.8281 -0.55859,-2.332 -1.1211,-4.668 -1.7734,-6.9062 -0.28125,-1.0273 -0.65234,-1.9609 -0.93359,-2.8945 -0.83984,-2.5195 -1.6797,-4.9453 -2.707,-7.2812 -0.28125,-0.74609 -0.65234,-1.4922 -0.93359,-2.2383 -1.1211,-2.5195 -2.2383,-4.9453 -3.5469,-7.375 -0.375,-0.65234 -0.74609,-1.3086 -1.1211,-1.9609 -1.3086,-2.332 -2.707,-4.668 -4.1992,-6.9062 -0.46484,-0.74609 -1.0273,-1.3984 -1.4922,-2.1484 -1.4922,-2.1484 -2.9883,-4.1992 -4.668,-6.1602 -0.65234,-0.83984 -1.3984,-1.5859 -2.0547,-2.4258 -1.2148,-1.3984 -2.332,-2.8008 -3.6406,-4.1992 -0.375,-0.46484 -0.83984,-0.74609 -1.3086,-1.2148 -0.83984,-0.83984 -1.6797,-1.5859 -2.5195,-2.4258 -11.668,-11.105 -25.293,-19.227 -40.227,-24.078 -0.74609,-0.28125 -1.4922,-0.55859 -2.2383,-0.74609 -2.2383,-0.65234 -4.5742,-1.2148 -6.8125,-1.7734 -1.3984,-0.375 -2.8008,-0.65234 -4.293,-0.93359 -1.8672,-0.375 -3.8281,-0.65234 -5.6914,-0.83984 -1.8672,-0.28125 -3.8281,-0.46484 -5.7852,-0.65234 -1.6797,-0.09375 -3.3594,-0.1875 -5.1328,-0.28125 -1.125,0.0039 -2.3398,-0.17969 -3.5508,-0.17969 -0.83984,0 -1.6797,0.09375 -2.6133,0.09375 -0.83984,0 -1.5859,-0.09375 -2.4258,0 l -3.6406,0.1875 -0.0937,0.09375 c -55.066,4.5703 -98.562,50.77 -98.562,106.96 0,59.172 48.16,107.33 107.34,107.33 26.879,0 51.426,-9.9883 70.281,-26.414 0.28125,-0.1875 0.55859,-0.28125 0.83984,-0.55859 0.1875,-0.1875 0.1875,-0.375 0.375,-0.46484 19.785,-17.734 33.039,-42.652 35.465,-70.652 l 0.1875,-0.1875 0.1875,-4.1055 v -2.5195 c 0,-0.83984 0.0937,-1.5859 0.0937,-2.4258 0,-0.93359 -0.0937,-1.9609 -0.1875,-2.8945 -0.0977,-1.9609 -0.19141,-3.9219 -0.375,-5.8828 z M 247.34,93.617 c 0.83984,0 1.6797,0.09375 2.5195,0.09375 1.2148,0.09375 2.4258,0.1875 3.5469,0.375 1.8672,0.1875 3.6406,0.46484 5.5078,0.83984 0.93359,0.1875 1.8672,0.375 2.707,0.55859 2.1484,0.46484 4.1992,1.0273 6.2539,1.5859 0.55859,0.1875 1.1211,0.28125 1.6797,0.46484 2.4258,0.74609 4.7617,1.5859 7,2.6133 0.28125,0.0937 0.46484,0.1875 0.74609,0.28125 2.5195,1.0273 4.9453,2.2383 7.375,3.5469 0.0937,0 0.1875,0.0937 0.28125,0.0937 2.4258,1.3086 4.7617,2.707 7,4.293 0.0937,0.0937 0.1875,0.0937 0.28125,0.1875 2.1484,1.4922 4.1992,2.9883 6.1602,4.668 0.28125,0.1875 0.46484,0.375 0.74609,0.55859 1.7734,1.4922 3.5469,3.0781 5.2266,4.7617 0.375,0.375 0.83984,0.74609 1.2148,1.1211 1.7734,1.8672 3.5469,3.7344 5.1328,5.6914 l 0.375,0.375 c 7.1875,8.6797 12.691,18.762 16.148,29.773 0.0937,0.1875 0.0937,0.46484 0.1875,0.65234 0.74609,2.332 1.3086,4.7617 1.8672,7.2812 0.1875,0.74609 0.28125,1.4922 0.46484,2.2383 0.375,1.9609 0.65234,3.9219 0.93359,5.8789 0.0937,1.0273 0.1875,2.0547 0.28125,3.0781 0.0937,0.83984 0.0937,1.7734 0.0937,2.6133 h -83.73 z m -93.332,88.387 c 0,-44.148 32.387,-80.734 74.668,-87.453 v 92.027 0.0937 l 0.37109,9.332 h 5.1328 l 58.895,58.895 c -14.375,9.8906 -31.734,15.773 -50.398,15.773 -48.906,0 -88.668,-39.762 -88.668,-88.668 z m 153.16,60.668 -46.668,-46.668 h 69.625 c -2.8906,17.922 -11.012,33.973 -22.957,46.668 z"
       id="path62-5"
       inkscape:connector-curvature="0" />
    <path
       d="m 434,140 h 74.668 c 5.1328,0 9.332,-4.1992 9.332,-9.332 0,-5.1328 -4.1992,-9.332 -9.332,-9.332 H 434 c -5.1328,0 -9.332,4.1992 -9.332,9.332 0,5.1328 4.1992,9.332 9.332,9.332 z"
       id="path64"
       inkscape:connector-curvature="0" />
    <path
       d="m 548.8,124.04 c -1.7734,1.6797 -2.8008,4.1094 -2.8008,6.6289 0,2.5195 1.0273,4.9453 2.707,6.5352 1.7734,1.7695 4.1055,2.7969 6.625,2.7969 2.4258,0 4.8516,-1.0273 6.625,-2.707 1.6836,-1.7734 2.7109,-4.1992 2.7109,-6.625 0,-2.4258 -1.0273,-4.8516 -2.707,-6.625 -3.5469,-3.457 -9.8945,-3.3633 -13.16,-0.004 z"
       id="path66"
       inkscape:connector-curvature="0" />
    <path
       d="m 527.33,93.332 h 28 c 5.1328,0 9.332,-4.1992 9.332,-9.332 0,-5.1328 -4.1992,-9.332 -9.332,-9.332 h -28 c -5.1328,0 -9.332,4.1992 -9.332,9.332 0,5.1328 4.1992,9.332 9.332,9.332 z"
       id="path68"
       inkscape:connector-curvature="0" />
    <path
       d="m 434,93.332 h 18.668 c 5.1328,0 9.332,-4.1992 9.332,-9.332 0,-5.1328 -4.1992,-9.332 -9.332,-9.332 H 434 c -5.1328,0 -9.332,4.1992 -9.332,9.332 0,5.1328 4.1992,9.332 9.332,9.332 z"
       id="path70"
       inkscape:connector-curvature="0" />
    <path
       d="m 490,93.332 c 2.5195,0 4.8516,-1.0273 6.625,-2.707 1.6836,-1.7734 2.707,-4.1055 2.707,-6.625 0,-2.5195 -1.0273,-4.8516 -2.707,-6.625 -3.4531,-3.4531 -9.8945,-3.4531 -13.254,0 -1.6797,1.7734 -2.7031,4.1055 -2.7031,6.625 0,2.5195 1.0273,4.8516 2.707,6.625 1.7734,1.6836 4.1055,2.707 6.625,2.707 z"
       id="path72"
       inkscape:connector-curvature="0" />
  </g>
  <g
     transform="matrix(0.45709486,0,0,0.45709486,505.14796,322.00645)"
     id="g242">
    <path
       d="m 402.5,43.75 h -105 c -4.832,0 -8.75,3.918 -8.75,8.75 0,4.832 3.918,8.75 8.75,8.75 h 105 c 4.832,0 8.75,-3.918 8.75,-8.75 0,-4.832 -3.918,-8.75 -8.75,-8.75 z"
       id="path82"
       inkscape:connector-curvature="0" />
    <path
       d="m 402.5,78.75 h -105 c -4.832,0 -8.75,3.918 -8.75,8.75 0,4.832 3.918,8.75 8.75,8.75 h 105 c 4.832,0 8.75,-3.918 8.75,-8.75 0,-4.832 -3.918,-8.75 -8.75,-8.75 z"
       id="path84"
       inkscape:connector-curvature="0" />
    <path
       d="m 402.5,113.75 h -105 c -4.832,0 -8.75,3.918 -8.75,8.75 0,4.832 3.918,8.75 8.75,8.75 h 105 c 4.832,0 8.75,-3.918 8.75,-8.75 0,-4.832 -3.918,-8.75 -8.75,-8.75 z"
       id="path86"
       inkscape:connector-curvature="0" />
    <path
       d="m 402.5,148.75 h -48.125 c -4.832,0 -8.75,3.918 -8.75,8.75 0,4.832 3.918,8.75 8.75,8.75 H 402.5 c 4.832,0 8.75,-3.918 8.75,-8.75 0,-4.832 -3.918,-8.75 -8.75,-8.75 z"
       id="path88"
       inkscape:connector-curvature="0" />
    <path
       d="m 402.5,183.75 h -48.125 c -4.832,0 -8.75,3.918 -8.75,8.75 0,4.832 3.918,8.75 8.75,8.75 H 402.5 c 4.832,0 8.75,-3.918 8.75,-8.75 0,-4.832 -3.918,-8.75 -8.75,-8.75 z"
       id="path90"
       inkscape:connector-curvature="0" />
    <path
       d="m 623.92,276.11 -52.805,-58.844 c -0.83984,-0.9375 -1.8672,-1.6836 -3.0195,-2.1875 -6.6797,-5.5 -14.469,-9.4844 -22.836,-11.68 -5.082,6.1523 -11.234,11.34 -18.156,15.312 h 1.4453 -0.004 c 11.125,-0.15625 21.895,3.9102 30.145,11.375 l 53.199,58.668 c 1.0078,0.875 1.0078,3.5 0,5.9922 l -65.012,58.145 c -1.793,1.75 -3.6758,1.6172 -4.0703,1.1797 l -8.75,-8.0508 v 0.004 c -0.043,-0.15625 -0.043,-0.32422 0,-0.48047 0.0859,-1.0859 0.56641,-2.0977 1.3594,-2.8438 l 48.477,-42.395 h -0.004 c 2.4961,-2.2266 3.9297,-5.4062 3.9375,-8.75 0.0898,-3.2734 -1.1797,-6.4414 -3.5,-8.75 l -36.445,-38.543 h 0.004 c -3.3242,-3.5156 -8.8672,-3.6758 -12.383,-0.35156 -3.5158,3.32424 -3.6719,8.8672 -0.35156,12.383 l 32.637,34.477 -44.145,38.633 -0.39453,0.35156 0.004,-0.008 c -4.4219,4.1055 -6.957,9.8516 -7,15.883 -0.0469,4.9375 1.9297,9.6797 5.4688,13.125 l 8.75,8.0508 c 3.5117,3.4062 8.2344,5.2773 13.125,5.207 5.6328,-0.0312 11.035,-2.2617 15.051,-6.2148 l 10.105,-9.2734 v 37.23 h -96.25 v -141.45 c 0.26562,-10.207 5.4688,-19.652 13.957,-25.328 -6.7891,-0.82422 -13.402,-2.7148 -19.602,-5.6016 -7.1133,8.0156 -11.293,18.215 -11.855,28.918 l -53.727,106.79 c -2.7852,4.4141 -3.7617,9.7305 -2.7148,14.844 1.043,5.1133 4.0234,9.625 8.3164,12.59 l 10.324,6.6484 c 2.7773,1.7031 5.9766,2.5977 9.2305,2.582 1.5508,-0.004 3.0938,-0.19531 4.5938,-0.57031 5.7148,-1.5273 10.582,-5.2773 13.52,-10.41 l 10.457,-19.645 v 33.031 c 0.0859,2.7852 0.95312,5.4922 2.5,7.8125 1.54688,2.3203 3.7109,4.1602 6.25,5.3125 v 133.22 c 0,4.6406 1.8438,9.0938 5.125,12.375 3.2812,3.2812 7.7344,5.125 12.375,5.125 h 17.5 c 4.6406,0 9.0938,-1.8438 12.375,-5.125 3.2812,-3.2812 5.125,-7.7344 5.125,-12.375 v -131.25 h 8.75 v 131.25 c 0,4.6406 1.8438,9.0938 5.125,12.375 3.2812,3.2812 7.7344,5.125 12.375,5.125 h 17.5 c 4.6406,0 9.0938,-1.8438 12.375,-5.125 3.2812,-3.2812 5.125,-7.7344 5.125,-12.375 v -133.04 c 2.5391,-1.1523 4.7031,-2.9922 6.25,-5.3125 1.5469,-2.3203 2.4141,-5.0273 2.5,-7.8125 v -55.344 l 38.457,-34.168 c 3.6992,-3.3164 5.6133,-8.1797 5.1602,-13.125 0.36328,-4.0742 -0.26953,-8.1719 -1.8359,-11.945 -1.0547,-2.0938 -2.4414,-4 -4.1133,-5.6445 z m -194.69,98 c -0.53906,1.0039 -1.4492,1.7578 -2.5352,2.1016 h -0.35156 l -10.281,-6.5195 c -0.625,-1.2812 -0.47266,-2.8047 0.39453,-3.9375 l 38.543,-76.43 v 37.273 z m 69.52,168.39 h -17.5 V 411.25 h 17.5 z m 43.75,0 V 411.25 H 560 V 542.5 Z"
       id="path92"
       inkscape:connector-curvature="0" />
    <path
       d="m 450.62,227.5 v -16.844 c -7.7695,-6.9609 -13.77,-15.676 -17.5,-25.418 V 227.5 H 267.53 c 19.863,-15.531 46.289,-36.227 58.492,-45.98 3.6836,-2.8945 6.0547,-7.1445 6.582,-11.797 0.52344,-4.6523 -0.83594,-9.3242 -3.7812,-12.965 -2.1445,-2.668 -4.375,-5.4258 -6.6484,-8.1367 l -5.8633,-7.1758 c -3.3281,-4.2148 -8.4102,-6.668 -13.781,-6.6523 -3.8711,-0.0156 -7.6328,1.2812 -10.676,3.6758 l -24.98,19.512 V 17.501 h 166.25 v 121.01 c 3.7305,-9.7422 9.7305,-18.457 17.5,-25.418 V 17.499 c 0,-4.6406 -1.8438,-9.0938 -5.125,-12.375 -3.2812,-3.2812 -7.7344,-5.125 -12.375,-5.125 h -166.25 c -4.6406,0 -9.0938,1.8438 -12.375,5.125 -3.2812,3.2812 -5.125,7.7344 -5.125,12.375 v 154.18 l -15.75,12.336 c -2.7578,-5.5547 -5.6445,-11.77 -7.6562,-16.102 -1.6172,-3.5 -2.8438,-6.082 -3.2812,-6.8242 -7.918,-14.395 -15.312,-24.457 -26.25,-30.625 11.727,-8.2305 19.578,-20.895 21.734,-35.059 2.1602,-14.16 -1.5625,-28.59 -10.305,-39.941 -8.7422,-11.348 -21.738,-18.637 -35.984,-20.168 -14.242,-1.5312 -28.492,2.8281 -39.449,12.059 -10.953,9.2344 -17.656,22.543 -18.559,36.84 -0.89844,14.297 4.082,28.344 13.789,38.879 -37.234,3.1914 -57.664,23.844 -57.664,58.973 v 172.33 c -0.01172,4.957 1.7461,9.75 4.9531,13.527 3.207,3.777 7.6562,6.2891 12.547,7.0781 v 167.52 c 0,4.6406 1.8438,9.0938 5.125,12.375 3.2812,3.2812 7.7344,5.125 12.375,5.125 h 17.5 c 4.6406,0 9.0938,-1.8438 12.375,-5.125 3.2812,-3.2812 5.125,-7.7344 5.125,-12.375 v -166.25 h 17.5 v 166.25 c 0,4.6406 1.8438,9.0938 5.125,12.375 3.2812,3.2812 7.7344,5.125 12.375,5.125 h 17.5 c 4.6406,0 9.0938,-1.8438 12.375,-5.125 3.2812,-3.2812 5.125,-7.7344 5.125,-12.375 v -167.61 c 16.012,-4.0703 17.5,-16.32 17.5,-20.605 v -102.38 c 5.25,-0.10156 10.359,-1.7266 14.699,-4.6836 l 0.39453,-0.30469 10.805,-8.3984 v -0.004 c 3.3008,4.0664 8.2422,6.4414 13.477,6.4766 h 166.25 c 4.6406,0 9.0938,-1.8438 12.375,-5.125 3.2812,-3.2812 5.125,-7.7344 5.125,-12.375 z M 166.24,52.5 c 9.2812,0 18.184,3.6875 24.75,10.25 6.5625,6.5664 10.25,15.469 10.25,24.75 0,9.281 -3.6875,18.184 -10.25,24.75 -6.5664,6.5625 -15.469,10.25 -24.75,10.25 -9.281,0 -18.184,-3.6875 -24.75,-10.25 -6.5625,-6.5664 -10.25,-15.469 -10.25,-24.75 0,-9.281 3.6875,-18.184 10.25,-24.75 6.5664,-6.5625 15.469,-10.25 24.75,-10.25 z m -43.75,490 h -17.5 V 376.25 h 17.5 z m 52.5,0 V 376.25 h 17.5 V 542.5 Z m 56.875,-309.57 c -1.8789,1.1328 -4.0664,1.6523 -6.2578,1.4883 -3.3906,-0.39062 -6.8203,-0.19922 -10.148,0.56641 -3.7852,1.3867 -6.1367,5.1797 -5.6875,9.1875 v 110.21 c 0,4.0234 -8.1797,4.375 -11.68,4.375 h -98.875 c -3.5469,0 -11.727,-0.4375 -11.727,-4.375 v -172.33 c 0,-18.023 5.293,-42.043 50.926,-42.043 h 19.688 c 28.961,0 36.531,6.3008 49.262,29.531 0.39453,0.74219 1.3984,2.9297 2.7578,5.8203 3.5,7.4805 8.75,18.77 12.645,25.551 l -0.004,-0.004 c 1.7305,2.9453 4.8984,4.7461 8.3125,4.7266 h 3.4141 l 2.3633,-1.8828 c 5.6445,-4.375 47.207,-36.969 65.625,-51.406 l 5.9922,7.3516 c 2.1875,2.668 4.375,5.3828 6.4297,8.1367 -19.859,15.926 -78.66,61.82 -82.773,65.102 z"
       id="path94"
       inkscape:connector-curvature="0" />
    <path
       d="m 494.38,210 c 12.762,0 25.004,-5.0703 34.031,-14.094 9.0234,-9.0273 14.094,-21.27 14.094,-34.031 0,-12.761 -5.0703,-25.004 -14.094,-34.031 -9.0273,-9.0234 -21.27,-14.094 -34.031,-14.094 -12.761,0 -25.004,5.0703 -34.031,14.094 -9.0234,9.0273 -14.094,21.27 -14.094,34.031 0,12.761 5.0703,25.004 14.094,34.031 9.0273,9.0234 21.27,14.094 34.031,14.094 z m 0,-78.75 c 8.1211,0 15.91,3.2266 21.656,8.9688 5.7422,5.7461 8.9688,13.535 8.9688,21.656 0,8.121 -3.2266,15.91 -8.9688,21.656 -5.7461,5.7422 -13.535,8.9688 -21.656,8.9688 -8.121,0 -15.91,-3.2266 -21.656,-8.9688 -5.7422,-5.7461 -8.9688,-13.535 -8.9688,-21.656 0,-8.121 3.2266,-15.91 8.9688,-21.656 5.7461,-5.7422 13.535,-8.9688 21.656,-8.9688 z"
       id="path96"
       inkscape:connector-curvature="0" />
  </g>
  <text
     xml:space="preserve"
     style="font-style:normal;font-weight:normal;font-size:30px;line-height:1.25;font-family:sans-serif;letter-spacing:0px;word-spacing:0px;fill:#000000;fill-opacity:1;stroke:none;stroke-width:0.75"
     x="35.686665"
     y="137.86296"
     id="text3992"><tspan
       sodipodi:role="line"
       id="tspan3990"
       x="35.686665"
       y="137.86296"
       style="font-size:72px;stroke-width:0.75">1</tspan></text>
  <flowRoot
     xml:space="preserve"
     id="flowRoot3994"
     style="font-style:normal;font-weight:normal;font-size:40px;line-height:1.25;font-family:sans-serif;letter-spacing:0px;word-spacing:0px;fill:#000000;fill-opacity:1;stroke:none"
     transform="matrix(0.75000002,0,0,0.75000002,0,-104.7244)"><flowRegion
       id="flowRegion3996"><rect
         id="rect3998"
         width="118.64407"
         height="197.74011"
         x="11.864407"
         y="23.728813" /></flowRegion><flowPara
       id="flowPara4000"></flowPara></flowRoot>  <text
     xml:space="preserve"
     style="font-style:normal;font-weight:normal;font-size:72px;line-height:1.25;font-family:sans-serif;letter-spacing:0px;word-spacing:0px;fill:#000000;fill-opacity:1;stroke:none;stroke-width:0.75"
     x="435.35013"
     y="135.41998"
     id="text4004"><tspan
       sodipodi:role="line"
       id="tspan4002"
       x="435.35013"
       y="135.41998"
       style="font-size:72px;stroke-width:0.75">2</tspan></text>
  <text
     xml:space="preserve"
     style="font-style:normal;font-weight:normal;font-size:72px;line-height:1.25;font-family:sans-serif;letter-spacing:0px;word-spacing:0px;fill:#000000;fill-opacity:1;stroke:none;stroke-width:0.75"
     x="743.17517"
     y="355.5426"
     id="text4004-6"><tspan
       sodipodi:role="line"
       id="tspan4002-2"
       x="743.17517"
       y="355.5426"
       style="font-size:72px;stroke-width:0.75">3</tspan></text>
</svg>
